<svg width="271" height="370" viewBox="0 0 271 370" fill="none" xmlns="http://www.w3.org/2000/svg">
<path fill-rule="evenodd" clip-rule="evenodd" d="M37.5045 195.882C37.5045 195.479 37.5069 195.076 37.5118 194.673H37.5045V94.3137H37.5704C39.4797 41.9029 82.5937 0 135.5 0C188.406 0 231.52 41.9029 233.43 94.3137H233.496V194.673H233.488C233.493 195.076 233.496 195.479 233.496 195.882C233.496 209.625 230.664 222.706 225.551 234.575H264C267.866 234.575 271.019 237.711 270.819 241.572C270.52 247.363 269.85 253.103 268.823 258.758C263.932 285.689 250.946 310.713 231.313 330.335C205.902 355.732 171.437 370 135.5 370C99.5632 370 65.0982 355.732 39.687 330.335C20.0538 310.713 7.06778 285.689 2.17732 258.758C1.15032 253.103 0.480345 247.363 0.180797 241.572C-0.0189023 237.711 3.134 234.575 6.99999 234.575H45.4487C40.3364 222.706 37.5045 209.625 37.5045 195.882ZM60.3613 258.758H26.8579C31.4204 279.23 41.7237 298.171 56.7965 313.235C77.67 334.097 105.98 345.817 135.5 345.817C165.02 345.817 193.33 334.097 214.204 313.235C229.276 298.171 239.58 279.23 244.142 258.758H210.639C192.663 280.194 165.674 293.824 135.5 293.824C105.326 293.824 78.3375 280.194 60.3613 258.758Z" fill="#9FEF00"/>
</svg>
