<svg width="484" height="183" viewBox="0 0 484 183" fill="none" xmlns="http://www.w3.org/2000/svg">
<path d="M19.824 79.096C19.824 80.44 20.524 81.42 21.924 82.036C23.324 82.596 25.872 83.072 29.568 83.464C33.824 83.912 37.296 85.2 39.984 87.328C42.672 89.4 44.016 92.312 44.016 96.064V96.568C44.016 100.712 42.504 104.016 39.48 106.48C36.456 108.944 32.2 110.176 26.712 110.176C23.464 110.176 20.692 109.756 18.396 108.916C16.1 108.076 14.196 107.04 12.684 105.808C11.172 104.52 9.996 103.12 9.156 101.608C8.372 100.04 7.84 98.528 7.56 97.072L17.304 93.88C17.752 95.672 18.676 97.24 20.076 98.584C21.532 99.928 23.744 100.6 26.712 100.6C29.344 100.6 31.136 100.208 32.088 99.424C33.096 98.584 33.6 97.688 33.6 96.736C33.6 96.176 33.46 95.672 33.18 95.224C32.956 94.72 32.508 94.272 31.836 93.88C31.164 93.432 30.24 93.068 29.064 92.788C27.944 92.508 26.516 92.284 24.78 92.116C20.076 91.724 16.324 90.52 13.524 88.504C10.78 86.432 9.408 83.408 9.408 79.432V78.928C9.408 76.856 9.856 75.036 10.752 73.468C11.648 71.9 12.824 70.584 14.28 69.52C15.736 68.4 17.416 67.56 19.32 67C21.224 66.44 23.184 66.16 25.2 66.16C27.832 66.16 30.1 66.496 32.004 67.168C33.964 67.784 35.616 68.624 36.96 69.688C38.304 70.696 39.396 71.844 40.236 73.132C41.076 74.364 41.72 75.568 42.168 76.744L32.592 80.608C32.088 79.096 31.22 77.92 29.988 77.08C28.756 76.184 27.16 75.736 25.2 75.736C23.408 75.736 22.064 76.072 21.168 76.744C20.272 77.36 19.824 78.144 19.824 79.096ZM84.9496 102.952C83.8296 105.584 82.2616 107.46 80.2456 108.58C78.2296 109.644 75.8776 110.176 73.1896 110.176C70.6696 110.176 68.2896 109.7 66.0496 108.748C63.8656 107.796 61.9336 106.396 60.2536 104.548C58.5736 102.7 57.2296 100.46 56.2216 97.828C55.2696 95.196 54.7936 92.2 54.7936 88.84V87.496C54.7936 84.192 55.2696 81.224 56.2216 78.592C57.1736 75.96 58.4616 73.72 60.0856 71.872C61.7096 70.024 63.5856 68.624 65.7136 67.672C67.8976 66.664 70.2216 66.16 72.6856 66.16C75.6536 66.16 78.0336 66.664 79.8256 67.672C81.6736 68.68 83.1296 70.248 84.1936 72.376H85.7056V67.336H96.2896V96.4C96.2896 98.08 97.0456 98.92 98.5576 98.92H100.154V109H92.9296C91.0256 109 89.4576 108.44 88.2256 107.32C87.0496 106.2 86.4616 104.744 86.4616 102.952H84.9496ZM75.5416 100.096C78.6216 100.096 81.0856 99.088 82.9336 97.072C84.7816 95 85.7056 92.2 85.7056 88.672V87.664C85.7056 84.136 84.7816 81.364 82.9336 79.348C81.0856 77.276 78.6216 76.24 75.5416 76.24C72.4616 76.24 69.9976 77.276 68.1496 79.348C66.3016 81.364 65.3776 84.136 65.3776 87.664V88.672C65.3776 92.2 66.3016 95 68.1496 97.072C69.9976 99.088 72.4616 100.096 75.5416 100.096ZM106.479 67.336H117.903L127.731 103.96H129.243L139.071 67.336H150.495L138.567 109H118.407L106.479 67.336ZM170.177 91.612C170.233 92.844 170.513 93.992 171.017 95.056C171.577 96.064 172.305 96.96 173.201 97.744C174.153 98.472 175.217 99.06 176.393 99.508C177.625 99.9 178.913 100.096 180.257 100.096C182.889 100.096 184.905 99.648 186.305 98.752C187.705 97.8 188.713 96.68 189.329 95.392L198.401 100.432C197.897 101.496 197.197 102.616 196.301 103.792C195.405 104.912 194.229 105.948 192.773 106.9C191.373 107.852 189.637 108.636 187.565 109.252C185.549 109.868 183.169 110.176 180.425 110.176C177.289 110.176 174.433 109.672 171.857 108.664C169.281 107.656 167.041 106.2 165.137 104.296C163.289 102.392 161.833 100.068 160.769 97.324C159.761 94.58 159.257 91.472 159.257 88V87.496C159.257 84.304 159.789 81.392 160.853 78.76C161.973 76.128 163.485 73.888 165.389 72.04C167.293 70.192 169.505 68.764 172.025 67.756C174.601 66.692 177.345 66.16 180.257 66.16C183.841 66.16 186.921 66.804 189.497 68.092C192.073 69.324 194.201 70.92 195.881 72.88C197.561 74.784 198.793 76.912 199.577 79.264C200.361 81.56 200.753 83.8 200.753 85.984V91.612H170.177ZM180.173 75.736C177.485 75.736 175.301 76.436 173.621 77.836C171.941 79.18 170.849 80.748 170.345 82.54H190.001C189.665 80.58 188.601 78.956 186.809 77.668C185.073 76.38 182.861 75.736 180.173 75.736ZM221.106 109H210.522V50.2H221.106V73.384H222.618C223.738 71.088 225.362 69.324 227.49 68.092C229.618 66.804 232.334 66.16 235.638 66.16C238.102 66.16 240.426 66.636 242.61 67.588C244.85 68.54 246.782 69.94 248.406 71.788C250.086 73.58 251.402 75.792 252.354 78.424C253.362 81.056 253.866 84.052 253.866 87.412V88.924C253.866 92.34 253.39 95.364 252.438 97.996C251.486 100.628 250.198 102.868 248.574 104.716C246.95 106.508 245.018 107.88 242.778 108.832C240.594 109.728 238.214 110.176 235.638 110.176C233.734 110.176 232.082 109.98 230.682 109.588C229.282 109.196 228.05 108.664 226.986 107.992C225.978 107.32 225.11 106.564 224.382 105.724C223.71 104.828 223.122 103.904 222.618 102.952H221.106V109ZM232.194 100.096C235.498 100.096 238.158 99.088 240.174 97.072C242.246 95 243.282 92.2 243.282 88.672V87.664C243.282 84.136 242.246 81.364 240.174 79.348C238.158 77.276 235.498 76.24 232.194 76.24C228.89 76.24 226.202 77.304 224.13 79.432C222.114 81.504 221.106 84.248 221.106 87.664V88.672C221.106 92.088 222.114 94.86 224.13 96.988C226.202 99.06 228.89 100.096 232.194 100.096ZM264.476 98.92H278.588V77.416H265.484V67.336H289.172V98.92H301.268V109H264.476V98.92ZM291.776 54.988C291.776 56.108 291.552 57.172 291.104 58.18C290.712 59.132 290.152 59.972 289.424 60.7C288.696 61.372 287.828 61.932 286.82 62.38C285.868 62.772 284.86 62.968 283.796 62.968C282.676 62.968 281.64 62.772 280.688 62.38C279.736 61.932 278.896 61.372 278.168 60.7C277.44 59.972 276.852 59.132 276.404 58.18C276.012 57.172 275.816 56.108 275.816 54.988C275.816 53.868 276.012 52.832 276.404 51.88C276.852 50.872 277.44 50.032 278.168 49.36C278.896 48.632 279.736 48.072 280.688 47.68C281.64 47.232 282.676 47.008 283.796 47.008C284.86 47.008 285.868 47.232 286.82 47.68C287.828 48.072 288.696 48.632 289.424 49.36C290.152 50.032 290.712 50.872 291.104 51.88C291.552 52.832 291.776 53.868 291.776 54.988ZM313.978 67.336H326.326V50.2H336.91V67.336H351.946V77.416H336.91V96.4C336.91 98.08 337.666 98.92 339.178 98.92H350.434V109H332.794C330.89 109 329.322 108.384 328.09 107.152C326.914 105.92 326.326 104.352 326.326 102.448V77.416H313.978V67.336Z" fill="white"/>
<path fill-rule="evenodd" clip-rule="evenodd" d="M387.5 81C387.5 80.8331 387.501 80.6664 387.503 80.5H387.5V39H387.527C388.316 17.3274 406.135 0 428 0C449.865 0 467.684 17.3274 468.473 39H468.5V80.5H468.497C468.499 80.6664 468.5 80.8331 468.5 81C468.5 86.6827 467.33 92.092 465.217 97H477C480.866 97 484.045 100.146 483.563 103.982C483.436 104.994 483.282 106 483.1 107C481.079 118.136 475.712 128.484 467.598 136.598C457.096 147.1 442.852 153 428 153C413.148 153 398.904 147.1 388.402 136.598C380.288 128.484 374.921 118.136 372.9 107C372.718 106 372.564 104.994 372.437 103.982C371.955 100.146 375.134 97 379 97H390.783C388.67 92.092 387.5 86.6827 387.5 81ZM396.946 107H383.1C384.986 115.466 389.244 123.298 395.473 129.527C404.1 138.154 415.8 143 428 143C440.2 143 451.9 138.154 460.527 129.527C466.756 123.298 471.014 115.466 472.9 107H459.054C451.624 115.864 440.47 121.5 428 121.5C415.53 121.5 404.376 115.864 396.946 107Z" fill="#9FEF00"/>
</svg>
